<?xml version="1.0" standalone="no"?>
<!DOCTYPE svg PUBLIC "-//W3C//DTD SVG 20010904//EN"
 "http://www.w3.org/TR/2001/REC-SVG-20010904/DTD/svg10.dtd">
<svg version="1.0" xmlns="http://www.w3.org/2000/svg"
 width="640.000000pt" height="640.000000pt" viewBox="0 0 640.000000 640.000000"
 preserveAspectRatio="xMidYMid meet">
<metadata>
Created by potrace 1.14, written by Peter Selinger 2001-2017
</metadata>
<g transform="translate(0.000000,640.000000) scale(0.100000,-0.100000)"
fill="#000000" stroke="none">
<path d="M2920 4285 c-48 -22 -67 -42 -81 -82 -14 -45 -4 -95 27 -132 13 -16
214 -142 450 -282 l426 -253 -39 -23 c-469 -279 -831 -504 -846 -524 -64 -88
6 -219 118 -219 37 0 102 36 571 316 291 173 545 331 564 350 32 32 35 39 35
95 0 58 -2 62 -40 98 -58 54 -1073 661 -1116 666 -19 3 -49 -1 -69 -10z"/>
<path d="M603 2540 c-88 -53 -83 -198 8 -246 29 -15 124 -16 1108 -15 1021 1
1077 2 1100 19 90 66 91 180 2 239 l-34 23 -1076 0 c-1050 0 -1077 -1 -1108
-20z"/>
<path d="M4203 2540 c-87 -52 -95 -161 -17 -230 l35 -30 702 0 c679 0 703 1
734 20 89 54 83 199 -10 243 -32 15 -101 17 -724 17 -664 0 -689 -1 -720 -20z"/>
</g>
</svg>
