<?xml version="1.0" standalone="no"?>
<!DOCTYPE svg PUBLIC "-//W3C//DTD SVG 20010904//EN"
 "http://www.w3.org/TR/2001/REC-SVG-20010904/DTD/svg10.dtd">
<svg version="1.0" xmlns="http://www.w3.org/2000/svg"
 width="512.000000pt" height="512.000000pt" viewBox="0 0 512.000000 512.000000"
 preserveAspectRatio="xMidYMid meet">
<metadata>
Created by potrace 1.11, written by Peter Selinger 2001-2013
</metadata>
<g transform="translate(0.000000,512.000000) scale(0.100000,-0.100000)"
fill="#000000" stroke="none">
<path d="M2500 3286 c0 -173 0 -177 24 -199 13 -12 83 -78 157 -147 73 -69
145 -136 160 -150 15 -14 80 -75 145 -136 66 -62 133 -125 151 -141 l32 -30
-89 -84 c-48 -46 -199 -192 -335 -324 l-246 -240 5 -169 c4 -93 8 -171 9 -173
2 -2 230 221 506 494 l502 498 -34 33 c-18 18 -37 29 -41 25 -4 -5 -6 -3 -4 3
2 7 -31 44 -72 84 -41 39 -102 97 -134 128 -33 31 -63 56 -68 55 -4 -2 -7 1
-5 5 1 5 -43 51 -97 103 -55 52 -111 106 -124 121 -14 15 -29 25 -34 22 -5 -3
-7 -2 -6 3 5 14 -93 104 -104 97 -6 -4 -8 -2 -5 3 8 13 -233 244 -246 236 -6
-3 -7 -2 -4 4 4 6 -5 21 -18 33 l-25 23 0 -177z"/>
<path d="M350 1695 l0 -145 915 0 915 0 0 145 0 145 -915 0 -915 0 0 -145z"/>
<path d="M3600 1695 l0 -145 500 0 500 0 0 145 0 145 -500 0 -500 0 0 -145z"/>
</g>
</svg>
